<?xml version="1.0" encoding="UTF-8"?>
<svg xmlns="http://www.w3.org/2000/svg" width="520" height="360" viewBox="0 0 520 360">
  <rect width="100%" height="100%" fill="#FDFAF5"/>
  <text x="260" y="28" text-anchor="middle" font-family="Georgia, Times, serif" font-size="14" font-weight="bold" fill="#1E3A5F">Integrative Architektur — Edition · Philosophie · MER</text>

  <rect x="80" y="55" width="360" height="42" fill="#5C4A2A" opacity="0.15" stroke="#5C4A2A" stroke-width="1.5" rx="4"/>
  <text x="100" y="73" font-family="Georgia" font-size="11" font-weight="bold" fill="#5C4A2A">Edition 0.7</text>
  <text x="100" y="89" font-family="Georgia" font-size="9" fill="#555555">Transparenz · Audit</text>
  <line x1="260" y1="97" x2="260" y2="107" stroke="#C9A227" stroke-width="2"/>
  <polygon points="255,107 265,107 260,113" fill="#C9A227"/>

  <rect x="80" y="107" width="360" height="42" fill="#7D6B8A" opacity="0.15" stroke="#7D6B8A" stroke-width="1.5" rx="4"/>
  <text x="100" y="125" font-family="Georgia" font-size="11" font-weight="bold" fill="#7D6B8A">Dissertation Ü/S/F</text>
  <text x="100" y="141" font-family="Georgia" font-size="9" fill="#555555">Epistemische Hygiene</text>
  <line x1="260" y1="149" x2="260" y2="159" stroke="#C9A227" stroke-width="2"/>
  <polygon points="255,159 265,159 260,165" fill="#C9A227"/>

  <rect x="80" y="159" width="360" height="42" fill="#1E3A5F" opacity="0.15" stroke="#1E3A5F" stroke-width="1.5" rx="4"/>
  <text x="100" y="177" font-family="Georgia" font-size="11" font-weight="bold" fill="#1E3A5F">Philosophie A.1–12</text>
  <text x="100" y="193" font-family="Georgia" font-size="9" fill="#555555">Concept Space D1–D8</text>
  <line x1="260" y1="201" x2="260" y2="211" stroke="#C9A227" stroke-width="2"/>
  <polygon points="255,211 265,211 260,217" fill="#C9A227"/>

  <rect x="80" y="211" width="360" height="42" fill="#16A085" opacity="0.15" stroke="#16A085" stroke-width="1.5" rx="4"/>
  <text x="100" y="229" font-family="Georgia" font-size="11" font-weight="bold" fill="#16A085">4D-Matrix Z,I(Z)</text>
  <text x="100" y="245" font-family="Georgia" font-size="9" fill="#555555">K/G/S/N · Regionen</text>
  <line x1="260" y1="253" x2="260" y2="263" stroke="#C9A227" stroke-width="2"/>
  <polygon points="255,263 265,263 260,269" fill="#C9A227"/>

  <rect x="80" y="263" width="360" height="42" fill="#C9A227" opacity="0.15" stroke="#C9A227" stroke-width="1.5" rx="4"/>
  <text x="100" y="281" font-family="Georgia" font-size="11" font-weight="bold" fill="#C9A227">Π_KG · Π_SN</text>
  <text x="100" y="297" font-family="Georgia" font-size="9" fill="#555555">Trajektorien Z(t)</text>

  <text x="260" y="330" text-anchor="middle" font-family="Georgia" font-size="9" font-style="italic" fill="#1C2526">
    „Kompass, kein Programm" — areteisch, rekonstruktivistisch (A.6, D4)
  </text>
  <text x="12" y="352" font-family="Georgia, serif" font-size="8" fill="#555555">MER 4D-Matrix · Modell · kein DSM-Ersatz · Kompendium-Duktus</text>
</svg>